<svg width="22" height="22" viewBox="0 0 22 22" fill="none" xmlns="http://www.w3.org/2000/svg">
<g id="24-hours 1" clip-path="url(#clip0_57_3440)">
<path id="Vector" d="M9.62626 0H9.77536C10.3778 0.106133 10.5961 0.867969 10.0297 1.20055C9.96414 1.23922 9.84769 1.27159 9.6804 1.29766C8.88934 1.42098 8.13653 1.67406 7.39962 1.98129C7.22918 2.05233 7.09712 2.08842 7.00345 2.08957C6.30821 2.09773 6.11056 1.15973 6.73532 0.861953C6.84761 0.808385 7.05701 0.721875 7.36352 0.602422C8.09571 0.317396 8.84996 0.116589 9.62626 0Z" fill="white"/>
<path id="Vector_2" d="M12.228 0H12.3776C12.6049 0.0416797 12.8485 0.0734766 13.0608 0.122891C13.7715 0.290182 14.4621 0.51849 15.1327 0.807812C15.3057 0.882292 15.4253 0.956198 15.4915 1.02953C15.8585 1.43559 15.5349 2.10332 14.9918 2.09301C14.9101 2.09129 14.7877 2.05706 14.6244 1.99031C13.8798 1.68609 13.1394 1.42957 12.3488 1.30195C12.152 1.27016 12.0172 1.23177 11.9444 1.1868C11.4103 0.857656 11.6316 0.0936719 12.228 0Z" fill="white"/>
<path id="Vector_3" d="M19.8545 4.77123C19.8094 5.24432 19.3024 5.53264 18.8826 5.27568C18.8164 5.23529 18.7315 5.14878 18.6278 5.01615C18.1379 4.39053 17.5806 3.83222 16.9559 3.34123C16.8132 3.22894 16.7194 3.13398 16.6744 3.05635C16.3951 2.57209 16.8326 1.98986 17.374 2.11662C17.4759 2.14068 17.5944 2.20514 17.7293 2.30998C18.4059 2.83678 19.0121 3.43462 19.5478 4.1035C19.7437 4.34842 19.8808 4.49494 19.8545 4.77123Z" fill="white"/>
<path id="Vector_4" d="M22 12.2169V12.3673C21.9734 12.5051 21.9487 12.6433 21.9261 12.7819C21.4839 15.4739 20.0299 17.8935 17.8991 19.5744C15.9443 21.1164 13.7093 21.9249 11.1942 22H10.6846C7.68195 21.8947 4.85977 20.5846 2.86859 18.3799C1.07451 16.393 0.118307 14.0429 0 11.3296V10.7809C0.0764844 8.14301 1.1073 5.6375 2.8557 3.67039C2.85714 3.66884 2.85809 3.6669 2.85843 3.66481C2.85877 3.66272 2.85849 3.66058 2.85762 3.65865C2.85675 3.65673 2.85532 3.6551 2.85353 3.65398C2.85174 3.65285 2.84965 3.65229 2.84754 3.65234C2.68684 3.65406 2.50551 3.66695 2.3607 3.61754C1.68051 3.38551 1.81973 2.38176 2.5459 2.37316C3.10134 2.36658 3.65678 2.36328 4.21223 2.36328C4.41246 2.36328 4.55898 2.38405 4.6518 2.42559C4.95816 2.56266 5.02648 2.81746 5.02691 3.15391C5.02749 3.65865 5.02763 4.16324 5.02734 4.6677C5.02706 4.85618 5.00944 4.99326 4.97449 5.07891C4.82109 5.45445 4.36477 5.58809 4.0266 5.36078C3.78211 5.19664 3.71937 4.95516 3.73914 4.675C3.74201 4.63461 3.73012 4.62974 3.70348 4.66039C2.95883 5.52578 2.34609 6.53469 1.93617 7.60805C1.14211 9.68773 1.0788 11.7926 1.74625 13.9227C2.95023 17.7663 6.53598 20.518 10.5596 20.7006C15.3837 20.9202 19.7575 17.4904 20.6276 12.7282C20.6736 12.4777 20.6963 12.118 20.8205 11.9311C21.1595 11.4194 21.8995 11.6346 22 12.2169Z" fill="white"/>
<path id="Vector_5" d="M18.7679 10.9996C18.7679 13.0598 17.9495 15.0355 16.4927 16.4923C15.036 17.9491 13.0602 18.7675 11 18.7675C8.93983 18.7675 6.96404 17.9491 5.50728 16.4923C4.05052 15.0355 3.23212 13.0598 3.23212 10.9996C3.23212 8.93941 4.05052 6.96361 5.50728 5.50685C6.96404 4.05009 8.93983 3.23169 11 3.23169C12.0201 3.23169 13.0302 3.43261 13.9727 3.82299C14.9151 4.21336 15.7714 4.78554 16.4927 5.50685C17.2141 6.22817 17.7862 7.08449 18.1766 8.02694C18.567 8.96938 18.7679 9.97949 18.7679 10.9996ZM8.01325 12.9319C8.00974 12.9318 8.00631 12.9308 8.00336 12.9289C8.0004 12.927 7.99803 12.9243 7.99651 12.9211C7.995 12.918 7.99439 12.9145 7.99477 12.911C7.99514 12.9075 7.99648 12.9042 7.99864 12.9014C8.15361 12.7069 8.33136 12.5328 8.53188 12.3793C9.19145 11.8749 9.91118 11.3781 10.2102 10.56C10.5695 9.57731 10.2528 8.46099 9.28255 7.97888C8.63286 7.65661 7.87145 7.72923 7.28794 8.14903C6.83648 8.47388 6.57179 8.93694 6.49387 9.53821C6.37055 10.493 7.66348 10.664 7.77477 9.75048C7.807 9.48536 7.84438 9.32079 8.08286 9.16997C8.24442 9.06799 8.40068 9.03691 8.55165 9.07673C9.22755 9.25419 9.16051 10.0405 8.78755 10.4736C8.67783 10.6008 8.55752 10.7168 8.42661 10.8217C7.51911 11.5504 6.58024 12.1013 6.49387 13.414C6.47196 13.7466 6.55876 14.025 6.86727 14.1616C6.95923 14.2023 7.10331 14.2227 7.29954 14.2227C8.06352 14.223 8.82736 14.2227 9.59106 14.2218C9.75492 14.2218 9.87566 14.2063 9.95329 14.1754C10.4904 13.9618 10.4745 13.1785 9.95673 12.9822C9.86735 12.9484 9.69476 12.9322 9.43895 12.9336C8.95999 12.9362 8.48476 12.9356 8.01325 12.9319ZM14.2214 11.6733C14.2254 12.2855 14.2248 12.9027 14.2197 13.5249C14.2158 14.0014 14.6249 14.3352 15.0777 14.1831C15.2525 14.1244 15.3757 14.0125 15.4473 13.8475C15.4908 13.7467 15.5126 13.5714 15.5126 13.3216C15.5117 11.7283 15.5113 10.135 15.5113 8.54177C15.5113 8.37877 15.4957 8.25803 15.4645 8.17954C15.2561 7.65661 14.4994 7.65189 14.2837 8.14817C14.2421 8.24356 14.2217 8.41458 14.2222 8.66122C14.2231 9.2158 14.2231 9.76981 14.2222 10.3233C14.2221 10.3318 14.2187 10.34 14.2126 10.3461C14.2066 10.3521 14.1985 10.3555 14.19 10.3555H12.965C12.9567 10.3555 12.9488 10.3522 12.9429 10.3463C12.9371 10.3404 12.9337 10.3325 12.9336 10.3241C12.9333 9.74604 12.9333 9.16596 12.9336 8.58388C12.934 8.31876 12.9095 8.09704 12.7175 7.93935C12.4034 7.68196 11.9698 7.73997 11.7455 8.07341C11.6782 8.1731 11.6445 8.27851 11.6445 8.38966C11.6443 9.21122 11.6444 10.0329 11.645 10.8548C11.645 11.0387 11.6649 11.1755 11.7047 11.2651C11.8465 11.5831 12.1069 11.6445 12.4558 11.6445C13.0316 11.6445 13.6104 11.6447 14.1922 11.645C14.1998 11.645 14.2072 11.6479 14.2127 11.6532C14.2181 11.6586 14.2213 11.6658 14.2214 11.6733Z" fill="white"/>
<path id="Vector_6" d="M22 9.63788V9.78784C21.9576 10.001 21.8562 10.1569 21.6957 10.2558C21.3924 10.4423 20.9881 10.3555 20.8067 10.0409C20.7629 9.96502 20.7238 9.82465 20.6894 9.61984C20.5476 8.77421 20.2662 8.06394 19.9091 7.20198C19.8687 7.10459 19.8545 7.00146 19.8666 6.89261C19.9396 6.22402 20.8381 6.10714 21.0998 6.70269C21.5114 7.63984 21.8457 8.62339 22 9.63788Z" fill="white"/>
</g>
<defs>
<clipPath id="clip0_57_3440">
<rect width="22" height="22" fill="white"/>
</clipPath>
</defs>
</svg>
