<svg width="46" height="46" viewBox="0 0 46 46" fill="none" xmlns="http://www.w3.org/2000/svg">
<rect x="0.5" y="0.5" width="45" height="45" rx="17.5" fill="white"/>
<rect x="0.5" y="0.5" width="45" height="45" rx="17.5" stroke="#E4E9EE"/>
<path fill-rule="evenodd" clip-rule="evenodd" d="M18 15.5C16.159 15.5 14.6666 16.9924 14.6666 18.8333V27.1667C14.6666 29.0076 16.159 30.5 18 30.5H28C29.8409 30.5 31.3333 29.0076 31.3333 27.1667V18.8333C31.3333 16.9924 29.8409 15.5 28 15.5H18ZM18.3466 19.1466C18.0594 18.9551 17.6714 19.0327 17.4799 19.3199C17.2885 19.6071 17.3661 19.9952 17.6533 20.1867L20.8043 22.2873C22.1339 23.1737 23.866 23.1737 25.1957 22.2873L28.3467 20.1867C28.6339 19.9952 28.7115 19.6071 28.52 19.3199C28.3285 19.0327 27.9405 18.9551 27.6533 19.1466L24.5023 21.2473C23.5925 21.8538 22.4074 21.8538 21.4977 21.2473L18.3466 19.1466Z" fill="#2285C4"/>
</svg>
