<svg width="22" height="22" viewBox="0 0 22 22" fill="none" xmlns="http://www.w3.org/2000/svg">
<path fill-rule="evenodd" clip-rule="evenodd" d="M11.9167 2.0625C11.537 2.0625 11.2292 2.3703 11.2292 2.75C11.2292 3.1297 11.537 3.4375 11.9167 3.4375C12.7894 3.4375 13.6536 3.6094 14.4599 3.94338C15.2662 4.27737 15.9989 4.7669 16.616 5.38402C17.2331 6.00114 17.7226 6.73377 18.0566 7.54008C18.3906 8.34639 18.5625 9.21059 18.5625 10.0833C18.5625 10.463 18.8703 10.7708 19.25 10.7708C19.6297 10.7708 19.9375 10.463 19.9375 10.0833C19.9375 9.03002 19.73 7.98703 19.327 7.01389C18.9239 6.04076 18.3331 5.15655 17.5883 4.41175C16.8434 3.66694 15.9592 3.07613 14.9861 2.67305C14.013 2.26996 12.97 2.0625 11.9167 2.0625ZM19.25 17.4167V15.9079C19.25 15.1582 18.7936 14.4841 18.0975 14.2057L16.2329 13.4598C15.3476 13.1057 14.3387 13.4893 13.9123 14.3422L13.75 14.6667C13.75 14.6667 11.4583 14.2083 9.625 12.375C7.79167 10.5417 7.33333 8.25 7.33333 8.25L7.65785 8.08774C8.51068 7.66133 8.89428 6.65238 8.54016 5.76708L7.79431 3.90245C7.5159 3.20641 6.84176 2.75 6.09211 2.75H4.58333C3.57081 2.75 2.75 3.57081 2.75 4.58333C2.75 12.6835 9.31649 19.25 17.4167 19.25C18.4292 19.25 19.25 18.4292 19.25 17.4167ZM11.2292 6.41667C11.2292 6.03697 11.537 5.72917 11.9167 5.72917C12.4885 5.72917 13.0547 5.84179 13.5829 6.06061C14.1112 6.27943 14.5912 6.60015 14.9955 7.00447C15.3998 7.40879 15.7206 7.88879 15.9394 8.41707C16.1582 8.94534 16.2708 9.51154 16.2708 10.0833C16.2708 10.463 15.963 10.7708 15.5833 10.7708C15.2036 10.7708 14.8958 10.463 14.8958 10.0833C14.8958 9.6921 14.8188 9.3047 14.6691 8.94326C14.5193 8.58181 14.2999 8.25339 14.0233 7.97674C13.7466 7.7001 13.4182 7.48066 13.0567 7.33094C12.6953 7.18122 12.3079 7.10417 11.9167 7.10417C11.537 7.10417 11.2292 6.79636 11.2292 6.41667Z" fill="#008AD2"/>
</svg>
