<svg width="38" height="38" viewBox="0 0 38 38" fill="none" xmlns="http://www.w3.org/2000/svg">
<rect width="38" height="38" rx="15" fill="#2285C4"/>
<path fill-rule="evenodd" clip-rule="evenodd" d="M19.75 11.6875C19.4393 11.6875 19.1875 11.9393 19.1875 12.25C19.1875 12.5607 19.4393 12.8125 19.75 12.8125C20.4641 12.8125 21.1711 12.9531 21.8308 13.2264C22.4905 13.4997 23.09 13.9002 23.5949 14.4051C24.0998 14.91 24.5003 15.5095 24.7736 16.1692C25.0469 16.8289 25.1875 17.5359 25.1875 18.25C25.1875 18.5607 25.4393 18.8125 25.75 18.8125C26.0607 18.8125 26.3125 18.5607 26.3125 18.25C26.3125 17.3882 26.1428 16.5348 25.813 15.7386C25.4832 14.9424 24.9998 14.219 24.3904 13.6096C23.781 13.0002 23.0576 12.5168 22.2614 12.187C21.4652 11.8572 20.6118 11.6875 19.75 11.6875ZM25.75 24.25V23.0155C25.75 22.4022 25.3766 21.8506 24.8071 21.6228L23.2815 21.0126C22.5571 20.7229 21.7316 21.0367 21.3828 21.7345L21.25 22C21.25 22 19.375 21.625 17.875 20.125C16.375 18.625 16 16.75 16 16.75L16.2655 16.6172C16.9633 16.2684 17.2771 15.4429 16.9874 14.7185L16.3772 13.1929C16.1494 12.6234 15.5978 12.25 14.9845 12.25H13.75C12.9216 12.25 12.25 12.9216 12.25 13.75C12.25 20.3774 17.6226 25.75 24.25 25.75C25.0784 25.75 25.75 25.0784 25.75 24.25ZM19.1875 15.25C19.1875 14.9393 19.4393 14.6875 19.75 14.6875C20.2178 14.6875 20.6811 14.7796 21.1133 14.9587C21.5455 15.1377 21.9383 15.4001 22.2691 15.7309C22.5999 16.0617 22.8623 16.4545 23.0413 16.8867C23.2204 17.3189 23.3125 17.7822 23.3125 18.25C23.3125 18.5607 23.0607 18.8125 22.75 18.8125C22.4393 18.8125 22.1875 18.5607 22.1875 18.25C22.1875 17.9299 22.1245 17.6129 22.002 17.3172C21.8795 17.0215 21.6999 16.7528 21.4736 16.5264C21.2472 16.3001 20.9785 16.1205 20.6828 15.998C20.3871 15.8755 20.0701 15.8125 19.75 15.8125C19.4393 15.8125 19.1875 15.5607 19.1875 15.25Z" fill="white"/>
</svg>
