<svg width="46" height="46" viewBox="0 0 46 46" fill="none" xmlns="http://www.w3.org/2000/svg">
<rect x="0.5" y="0.5" width="45" height="45" rx="17.5" fill="white"/>
<rect x="0.5" y="0.5" width="45" height="45" rx="17.5" stroke="#E4E9EE"/>
<path d="M15.2374 22.027C20.0692 20.0513 23.2912 18.7487 24.9033 18.1194C29.5063 16.3226 30.4627 16.0105 31.0861 16.0001C31.2232 15.9979 31.5298 16.0298 31.7284 16.1811C31.8961 16.3088 31.9422 16.4813 31.9643 16.6023C31.9864 16.7234 32.0139 16.9992 31.992 17.2147C31.7426 19.6744 30.6633 25.6434 30.1142 28.3983C29.8818 29.564 29.4244 29.9548 28.9815 29.9931C28.0189 30.0762 27.288 29.3961 26.3558 28.8226C24.897 27.9251 24.0729 27.3664 22.6569 26.4907C21.0205 25.4786 22.0813 24.9224 23.0139 24.0133C23.258 23.7754 27.4988 20.1552 27.5809 19.8268C27.5912 19.7857 27.6007 19.6326 27.5038 19.5517C27.4069 19.4709 27.2639 19.4985 27.1606 19.5205C27.0143 19.5517 24.6839 20.9973 20.1694 23.8573C19.5079 24.2836 18.9087 24.4913 18.3719 24.4805C17.7801 24.4685 16.6417 24.1664 15.7955 23.9083C14.7575 23.5916 13.9325 23.4242 14.0044 22.8864C14.0418 22.6063 14.4528 22.3198 15.2374 22.027Z" fill="#5D656D"/>
</svg>
