<svg width="50" height="50" viewBox="0 0 50 50" fill="none" xmlns="http://www.w3.org/2000/svg">
<path id="Union" d="M41.3415 2.57551L38.8654 1.24602C32.368 -1.39464 24.7688 0.568689 18.6039 3.35582L15.0039 5.21161L13.9398 5.8363C11.2265 7.50369 8.68457 9.49755 6.31408 11.8178L5.37195 12.8567L5.07491 13.2297C4.26799 14.1877 3.67242 14.9375 3.28816 15.4791C1.52212 17.9672 0.440328 20.7093 0.0427842 23.7054C-0.134543 26.3339 0.239351 28.8418 1.16449 31.2293C2.28173 34.2086 3.6606 36.3825 5.67343 38.8927C7.06853 40.4884 8.59146 41.9491 10.2422 43.2748C12.1516 44.7606 14.2384 46.0634 16.5024 47.1831C18.9675 48.3318 21.5538 49.1678 24.2612 49.6911L26.1455 49.9016L28.7369 50L29.5305 49.9382C31.4842 49.8421 33.384 49.431 35.2299 48.7048C37.2309 47.9695 39.0738 46.9154 40.7585 45.5424L42.982 43.4921C45.2815 41.0147 47.0261 38.1635 48.2158 34.9386L48.739 33.4306C49.5547 30.7609 49.9744 28.0913 49.9981 25.4216C50.038 20.8336 49.4616 16.2342 48.0141 11.9048L47.1606 9.87739C46.5621 8.48308 45.8231 7.20926 44.9438 6.05598L44.2677 5.21846C43.9677 4.86607 43.6692 4.5541 43.3721 4.28257C42.6494 3.62659 41.9726 3.05758 41.3415 2.57551Z" fill="#2285C4"/>
</svg>
