<svg width="46" height="46" viewBox="0 0 46 46" fill="none" xmlns="http://www.w3.org/2000/svg">
<rect x="0.5" y="0.5" width="45" height="45" rx="17.5" fill="white"/>
<rect x="0.5" y="0.5" width="45" height="45" rx="17.5" stroke="#E4E9EE"/>
<path d="M23 15C18.582 15 15 18.582 15 23C15 24.5008 15.4216 25.9 16.1406 27.1003L15.0716 31L19.0547 29.9544C20.2196 30.6167 21.5643 31 23 31C27.418 31 31 27.418 31 23C31 18.582 27.418 15 23 15ZM20.2617 19.2682C20.3917 19.2682 20.5253 19.2674 20.6406 19.2734C20.7833 19.2768 20.9386 19.2872 21.0872 19.6159C21.2639 20.0066 21.6486 20.9866 21.6979 21.0859C21.7473 21.1853 21.7822 21.3023 21.7135 21.4323C21.6482 21.5656 21.6142 21.6463 21.5182 21.7643C21.4189 21.879 21.3101 22.0214 21.2201 22.1081C21.1207 22.2074 21.0181 22.3163 21.1328 22.5143C21.2475 22.7123 21.6457 23.3614 22.2344 23.8854C22.991 24.5614 23.6295 24.7692 23.8281 24.8685C24.0268 24.9678 24.1418 24.9523 24.2565 24.819C24.3745 24.689 24.7521 24.2429 24.8854 24.0443C25.0154 23.8456 25.1481 23.88 25.3281 23.9453C25.5108 24.0106 26.4849 24.4905 26.6836 24.5898C26.8823 24.6892 27.0125 24.7383 27.0625 24.819C27.1138 24.9023 27.1139 25.2991 26.9492 25.7617C26.7846 26.2237 25.9759 26.6705 25.6133 26.7018C25.2473 26.7358 24.9057 26.8663 23.2344 26.2083C21.2184 25.4143 19.947 23.3495 19.8477 23.2161C19.7483 23.0861 19.0404 22.1426 19.0404 21.1693C19.0404 20.1926 19.5524 19.7143 19.7318 19.5156C19.9144 19.317 20.1284 19.2682 20.2617 19.2682Z" fill="#5D656D"/>
</svg>
